<svg width="92" height="95" viewBox="0 0 92 95" fill="none" xmlns="http://www.w3.org/2000/svg">
<path fill-rule="evenodd" clip-rule="evenodd" d="M2.2695 4.539C1.0156 4.539 0 3.5234 0 2.2695C0 1.0156 1.0156 0 2.2695 0H17.8045C18.8983 0 19.8123 0.77344 20.0272 1.8047L22.3241 10.3672H88.7621C90.016 10.3672 91.0316 11.3828 91.0316 12.6367C91.0316 13.0117 90.9418 13.3672 90.7777 13.6758L78.8367 41.5588C77.7312 44.1408 75.9656 46.2307 73.7664 47.6838C71.5633 49.1369 68.95 49.9377 66.1531 49.9377H31.5281L26.3875 63.4177H80.0085C81.2624 63.4177 82.278 64.4333 82.278 65.6872C82.278 66.9411 81.2624 67.9567 80.0085 67.9567H23.0945C22.8289 67.9567 22.5554 67.9059 22.2859 67.8083C21.114 67.3629 20.5281 66.0544 20.9734 64.8786L27.5867 47.5386L18.3875 13.2146L16.0633 4.53486H2.2703L2.2695 4.539ZM70.0505 75.59C72.6443 75.59 74.9958 76.6447 76.6989 78.3439C78.3981 80.0431 79.4528 82.3986 79.4528 84.9923C79.4528 87.586 78.3981 89.9376 76.6989 91.6407C74.9997 93.3399 72.6442 94.3946 70.0505 94.3946C67.4568 94.3946 65.1052 93.3399 63.4021 91.6407C61.7029 89.9415 60.6482 87.586 60.6482 84.9923C60.6482 82.3986 61.7029 80.047 63.4021 78.3439C65.1013 76.6447 67.4568 75.59 70.0505 75.59ZM32.8435 75.59C35.4373 75.59 37.7888 76.6447 39.4919 78.3439C41.1911 80.0431 42.2458 82.3986 42.2458 84.9923C42.2458 87.586 41.1911 89.9376 39.4919 91.6407C37.7927 93.3399 35.4372 94.3946 32.8435 94.3946C30.2498 94.3946 27.8982 93.3399 26.1951 91.6407C24.4959 89.9415 23.4412 87.586 23.4412 84.9923C23.4412 82.3986 24.4959 80.047 26.1951 78.3439C27.8943 76.6447 30.2498 75.59 32.8435 75.59Z" fill="white"/>
</svg>
