<svg width="24" height="24" viewBox="0 0 24 24" fill="none" xmlns="http://www.w3.org/2000/svg">
<path d="M2.57143 3C1.70355 3 1 3.68801 1 4.53676C1 5.38547 1.70355 6.07353 2.57143 6.07353H21.4286C22.2964 6.07353 23 5.38547 23 4.53676C23 3.68801 22.2964 3 21.4286 3H2.57143ZM2.57143 10.1716C1.70355 10.1716 1 10.8596 1 11.7083C1 12.557 1.70355 13.2451 2.57143 13.2451H21.4286C22.2964 13.2451 23 12.557 23 11.7083C23 10.8596 22.2964 10.1716 21.4286 10.1716H2.57143ZM2.57143 17.3431C1.70355 17.3431 1 18.0311 1 18.8799C1 19.7286 1.70355 20.4167 2.57143 20.4167H21.4286C22.2964 20.4167 23 19.7286 23 18.8799C23 18.0311 22.2964 17.3431 21.4286 17.3431H2.57143Z" fill="#039D55"/>
</svg>